{"title":"Silent.Hill.Revelations.2012.WEBRip.x264. AC3-JDocsis3","uid":8046020,"size":1284246388,"categoryP":"video","categoryS":"movies","magnet":"?xt=urn:btih:b2ed9e5b7af1329d6384ac1f6739ef859657e8ea&amp;dn=Silent.Hill.Revelations.2012.WEBRip.x264.+AC3-JDocsis3&amp;tr=udp%3A%2F%2Ftracker.openbittorrent.com%3A80&amp;tr=udp%3A%2F%2Fopen.demonii.com%3A1337&amp;tr=udp%3A%2F%2Ftracker.coppersurfer.tk%3A6969&amp;tr=udp%3A%2F%2Fexodus.desync.com%3A6969","seeders":6,"leechers":1,"uploader":"Acesn8s","files":-1,"time":1358747149,"description":"Silent Hill Revelations 2012 WEBRip x264 AC3-JDocsis3\n[b]General\nFormat : Matroska\nFormat version : Version 2\nFile size : 1.20 GiB\nDuration : 1h 29mn\nOverall bit rate : 1 913 Kbps\nEncoded date : UTC 2013-01-20 22:49:38\nWriting library : libebml v1.2.3 + libmatroska v1.3.0\n\n\nVideo\nID : 1\nFormat : AVC\nFormat/Info : Advanced Video Codec\nFormat profile : &lt;a class=&quot;__cf_email__&quot; href=&quot;/cdn-cgi/l/email-protection&quot; data-cfemail=&quot;bef6d7d9d6fef28a908f&quot;&gt;[email&amp;#160;protected]&lt;/a&gt;&lt;script cf-hash='f9e31' type=&quot;text/javascript&quot;&gt;\n/* &lt;![CDATA[ */!function(){try{var t=&quot;currentScript&quot;in document?document.currentScript:function(){for(var t=document.getElementsByTagName(&quot;script&quot;),e=t.length;e--;)if(t[e].getAttribute(&quot;cf-hash&quot;))return t[e]}();if(t&amp;&amp;t.previousSibling){var e,r,n,i,c=t.previousSibling,a=c.getAttribute(&quot;data-cfemail&quot;);if(a){for(e=&quot;&quot;,r=parseInt(a.substr(0,2),16),n=2;a.length-n;n+=2)i=parseInt(a.substr(n,2),16)^r,e+=String.fromCharCode(i);e=document.createTextNode(e),c.parentNode.replaceChild(e,c)}}}catch(u){}}();/* ]]&gt; */&lt;/script&gt;\nFormat settings, CABAC : Yes\nFormat settings, ReFrames : 5 frames\nCodec ID : V_MPEG4/ISO/AVC\nDuration : 1h 29mn\nBit rate : 1 720 Kbps\nWidth : 720 pixels\nHeight : 296 pixels\nDisplay aspect ratio : 2.40:1\nFrame rate mode : Constant\nFrame rate : 23.976 fps\nColor space : YUV\nChroma subsampling : 4:2:0\nBit depth : 8 bits\nScan type : Progressive\nBits/(Pixel*Frame) : 0.337\nStream size : 1.05 GiB (88%)\nDefault : Yes\nForced : No\n\n\n\nAudio\nID : 2\nFormat : AC-3\nFormat/Info : Audio Coding 3\nMode extension : CM (complete main)\nFormat settings, Endianness : Big\nCodec ID : A_AC3\nDuration : 1h 29mn\nBit rate mode : Constant\nBit rate : 192 Kbps\nChannel(s) : 2 channels\nChannel positions : Front: L R\nSampling rate : 44.1 KHz\nBit depth : 16 bits\nCompression mode : Lossy\nStream size : 123 MiB (10%)\nDefault : Yes\nForced : No\n\n\nIMDb: http://www.imdb.com/title/tt0938330/\n\n\nPlot\nHeather Mason and her father have been on the run, always one step ahead of dangerous forces that she doesn't fully understand, Now on the eve of her 18th birthday, plagued by horrific nightmares and the disappearance of her father, Heather discovers she's not who she thinks she is. The revelation leads her deeper into a demonic world that threatens to trap her forever.\n\n[/b]\n\nCast: Adelaide Clemens, Kit Harington, Sean Bean\n\nPlot: \tWhen her father disappears, Heather Mason is drawn into a strange and terrifying alternate reality that holds answers to the horrific nightmares that have plagued her since childhood. \n\nScreens: \n &lt;a href=&quot;\nhttp://www.shotpix.com/images/86857835261422843029.jpg&quot; rel=&quot;nofollow&quot; target=&quot;_NEW&quot;&gt;\nhttp://www.shotpix.com/images/86857835261422843029.jpg&lt;/a&gt; &lt;a href=&quot;\nhttp://www.shotpix.com/images/20041293091066393327.png&quot; rel=&quot;nofollow&quot; target=&quot;_NEW&quot;&gt;\nhttp://www.shotpix.com/images/20041293091066393327.png&lt;/a&gt; &lt;a href=&quot;\nhttp://www.shotpix.com/images/92324316637124846161.jpg&quot; rel=&quot;nofollow&quot; target=&quot;_NEW&quot;&gt;\nhttp://www.shotpix.com/images/92324316637124846161.jpg&lt;/a&gt; &lt;a href=&quot;\nhttp://www.shotpix.com/images/68886896551352101877.jpg&quot; rel=&quot;nofollow&quot; target=&quot;_NEW&quot;&gt;\nhttp://www.shotpix.com/images/68886896551352101877.jpg&lt;/a&gt;\n","torrent":{"xt":"urn:btih:b2ed9e5b7af1329d6384ac1f6739ef859657e8ea","amp;dn":"Silent.Hill.Revelations.2012.WEBRip.x264.+AC3-JDocsis3","amp;tr":["udp%3A%2F%2Ftracker.openbittorrent.com%3A80","udp%3A%2F%2Fopen.demonii.com%3A1337","udp%3A%2F%2Ftracker.coppersurfer.tk%3A6969","udp%3A%2F%2Fexodus.desync.com%3A6969"],"infoHash":"b2ed9e5b7af1329d6384ac1f6739ef859657e8ea","infoHashBuffer":{"type":"Buffer","data":[178,237,158,91,122,241,50,157,99,132,172,31,103,57,239,133,150,87,232,234]},"announce":[],"urlList":[]}}